<svg width="601" height="610" viewBox="0 0 601 610" fill="none" xmlns="http://www.w3.org/2000/svg">
<ellipse cx="300.5" cy="305" rx="300.5" ry="305" fill="white"/>
<path d="M296.31 262.167C329.41 262.645 367.825 273.949 419.191 303.867C370.727 329.758 333.379 338.59 300.653 338.151C266.703 337.696 228.458 327.227 178.899 300.408C227.939 271.12 264.714 261.71 296.31 262.167Z" stroke="#FF9216" stroke-width="207"/>
<circle cx="300" cy="305" r="72" fill="white"/>
<circle cx="335" cy="347" r="9" fill="#FF9216"/>
<path d="M1.5 305.5C248.097 73.5135 377.491 113.512 599.5 305.5M1.5 305.5C243.186 514.672 374.015 493.029 599.5 305.5M1.5 305.5C219.606 93.4883 348.799 57.925 599.5 305.5M1.5 305.5C246.133 532.331 376.505 505.826 599.5 305.5M1.5 305.5C229.456 69.1979 360.78 51.4701 599.5 305.5M1.5 305.5C240.036 537.29 371.701 535.215 599.5 305.5" stroke="black" stroke-width="2"/>
</svg>
